<svg width="100%" height="100%" id="svg" viewBox="0 0 1440 500" xmlns="http://www.w3.org/2000/svg" class="transition duration-300 ease-in-out delay-150"><defs><linearGradient id="gradient" x1="12%" y1="17%" x2="88%" y2="83%"><stop offset="5%" stop-color="#f578b988"></stop><stop offset="95%" stop-color="#c482f688"></stop></linearGradient></defs><path d="M 0,500 C 0,500 0,166 0,166 C 115,191.67857142857144 230,217.35714285714286 340,198 C 450,178.64285714285714 555,114.25 688,121 C 821,127.75 982,205.64285714285714 1112,225 C 1242,244.35714285714286 1341,205.17857142857144 1440,166 C 1440,166 1440,500 1440,500 Z" stroke="none" stroke-width="0" fill="url(#gradient)" class="transition-all duration-300 ease-in-out delay-150 path-0"></path><defs><linearGradient id="gradient" x1="12%" y1="17%" x2="88%" y2="83%"><stop offset="5%" stop-color="#f578b9ff"></stop><stop offset="95%" stop-color="#c482f6ff"></stop></linearGradient></defs><path d="M 0,500 C 0,500 0,333 0,333 C 135.64285714285714,357.7142857142857 271.2857142857143,382.42857142857144 387,388 C 502.7142857142857,393.57142857142856 598.5000000000001,379.99999999999994 705,363 C 811.4999999999999,346.00000000000006 928.7142857142856,325.5714285714286 1053,320 C 1177.2857142857144,314.4285714285714 1308.6428571428573,323.71428571428567 1440,333 C 1440,333 1440,500 1440,500 Z" stroke="none" stroke-width="0" fill="url(#gradient)" class="transition-all duration-300 ease-in-out delay-150 path-1"></path></svg>
